HIERARCHY
ROOT Hips
{
    OFFSET 0.000000 0.000000 0.000000
    CHANNELS 6 Xposition Yposition Zposition Zrotation Xrotation Yrotation
        JOINT Chest
        {
            OFFSET -0.000000 30.832245 -0.000000
            CHANNELS 3 Zrotation Xrotation Yrotation
            JOINT Neck
            {
                OFFSET -0.000000 22.747684 0.000000
                CHANNELS 3 Zrotation Xrotation Yrotation
                JOINT Head
                {
                    OFFSET -0.000000 10.755556 0.000000
                    CHANNELS 3 Zrotation Xrotation Yrotation
                    End Site
                    {
                        OFFSET -0.000000 16.622223 0.000000
                    }
                }
            }
            JOINT LeftCollar
            {
                OFFSET -0.000000 22.747684 0.000000
                CHANNELS 3 Zrotation Xrotation Yrotation
                JOINT LeftShoulder
                {
                    OFFSET 19.555553 -0.000000 0.000000
                    CHANNELS 3 Zrotation Xrotation Yrotation
                    JOINT LeftElbow
                    {
                        OFFSET 22.529686 0.000000 0.000000
                        CHANNELS 3 Zrotation Xrotation Yrotation
                        JOINT LeftWrist
                        {
                            OFFSET 26.249420 0.000000 0.000000
                            CHANNELS 3 Zrotation Xrotation Yrotation
                            End Site
                            {
                                OFFSET 0.000000 -14.666668 0.000000
                            }
                        }
                    }
                }
            }
            JOINT RightCollar
            {
                OFFSET -0.000000 22.747684 0.000000
                CHANNELS 3 Zrotation Xrotation Yrotation
                JOINT RightShoulder
                {
                    OFFSET -19.555553 0.000000 0.000000
                    CHANNELS 3 Zrotation Xrotation Yrotation
                    JOINT RightElbow
                    {
                        OFFSET -22.529686 0.000000 0.000000
                        CHANNELS 3 Zrotation Xrotation Yrotation
                        JOINT RightWrist
                        {
                            OFFSET -26.249420 0.000000 0.000000
                            CHANNELS 3 Zrotation Xrotation Yrotation
                            End Site
                            {
                                OFFSET -0.000000 -14.666668 0.000000
                            }
                        }
                    }
                }
            }
        }
    JOINT LeftHip
    {
        OFFSET 11.733333 0.000000 0.000000
        CHANNELS 3 Zrotation Xrotation Yrotation
        JOINT LeftKnee
        {
            OFFSET -0.000000 -34.781296 0.000000
            CHANNELS 3 Zrotation Xrotation Yrotation
            JOINT LeftAnkle
            {
                OFFSET -0.000000 -42.425819 0.000000
                CHANNELS 3 Zrotation Xrotation Yrotation
                End Site
                {
                    OFFSET -0.000000 -4.888888 16.622223
                }
            }
        }
    }
    JOINT RightHip
    {
        OFFSET -11.733333 0.000000 0.000000
        CHANNELS 3 Zrotation Xrotation Yrotation
        JOINT RightKnee
        {
            OFFSET -0.000000 -34.781296 0.000000
            CHANNELS 3 Zrotation Xrotation Yrotation
            JOINT RightAnkle
            {
                OFFSET -0.000000 -42.425819 0.000000
                CHANNELS 3 Zrotation Xrotation Yrotation
                End Site
                {
                    OFFSET -0.000000 -4.888888 16.622223
                }
            }
        }
    }
}
MOTION
Frames:    10
Frame Time:    0.010000
41.615429    85.615417    -40.163086    -0.180919    2.915969    -65.212288    -6.318744    14.700150    1.021496    2.372049    -0.750039    10.052056    1.646769    -10.578003    10.088573    -9.329312    0.031500    0.033877    -32.163525    54.354069    -48.480953    2.237615    -0.043977    -4.004723    115.196602    5.541105    64.291634    6.503967    0.194894    4.031471    56.018936    43.673023    31.919611    0.574127    0.044405    14.370951    -65.886368    10.356579    6.617864    10.314566    -16.166573    1.507706    -1.429160    15.836594    0.343168    -2.446364    5.274663    21.144768    2.877698    -3.659889    -2.621974    0.202906    12.744687    -6.817642    -0.357806    -8.934958    -15.733159    
41.586227    85.596420    -40.309113    -0.272966    2.871267    -65.231720    -6.389645    14.948612    0.890750    2.404425    -0.844482    9.908550    1.520843    -11.141447    10.039473    -9.288996    0.031419    -0.265743    -31.964235    54.151470    -48.756134    2.029666    -0.069145    -3.968898    115.258957    5.302163    63.812878    6.331249    0.227131    3.987510    56.489784    43.057873    31.612354    0.575442    0.073589    13.932494    -65.181442    10.186482    7.043020    10.404444    -16.234076    2.506540    -1.101920    16.119761    -0.635999    -2.580094    5.217604    21.105032    2.979084    -3.607368    -2.705945    0.186794    12.776090    -6.848423    -0.455877    -8.950381    -15.611273    
41.582264    85.566513    -40.429230    -0.258464    2.900988    -65.341225    -6.418452    14.827662    0.842382    2.264871    -0.811339    10.022173    1.687529    -11.173258    10.171068    -9.348348    0.003621    -0.079760    -31.651440    54.331619    -49.085552    2.156039    -0.043650    -4.045931    115.385727    5.512415    63.252453    6.365167    0.201481    4.093190    56.536221    43.041866    31.228306    0.317570    0.038134    14.064214    -65.377968    10.226123    6.820055    10.609645    -16.023914    2.057845    -1.405957    15.675184    -0.025266    -2.491704    5.401894    21.115320    3.048992    -3.518798    -1.274601    0.547599    12.460462    -8.378156    -0.529456    -8.725175    -15.405931    
41.574913    85.558960    -40.526756    -0.289390    2.898484    -65.399864    -6.457265    14.855852    0.788309    2.250055    -0.824487    10.017493    1.726339    -11.237261    10.171084    -9.356373    0.037901    -0.142681    -31.413849    54.302761    -49.363964    1.986665    -0.066089    -3.998549    115.549011    5.315374    62.722752    6.340919    0.227798    4.069682    56.650455    42.840542    31.008112    0.279695    0.049084    13.920943    -65.266724    10.124875    6.838734    10.716866    -15.973368    2.188611    -1.409694    15.624571    -0.072034    -2.523216    5.458127    21.100431    3.111990    -3.495885    -0.886527    0.644903    12.409644    -8.798190    -0.586780    -8.668602    -15.318653    
41.568237    85.552666    -40.636028    -0.323946    2.897706    -65.473183    -6.492072    14.884584    0.730589    2.176093    -0.864879    10.083815    1.824217    -11.281501    10.247496    -9.378832    0.003675    -0.055693    -31.112247    54.318081    -49.727024    2.037655    -0.097691    -3.984462    115.606903    4.989843    62.048859    6.301396    0.253002    4.164013    56.732899    42.664764    30.777449    0.137004    0.013818    13.843718    -65.112053    10.026164    6.824640    10.839824    -15.925702    2.316962    -1.419571    15.584078    -0.099171    -2.547388    5.513414    21.083977    3.182979    -3.505259    -0.595050    0.721624    12.414494    -9.087304    -0.649646    -8.630163    -15.245520    
41.561710    85.547173    -40.753796    -0.363745    2.898118    -65.562691    -6.526531    14.912645    0.673975    2.130866    -0.897694    10.128304    1.888105    -11.339170    10.298718    -9.400602    -0.024286    -0.024256    -30.769262    54.321571    -50.128330    1.953640    -0.072054    -3.924513    115.719452    4.430046    61.166958    6.283735    0.231877    4.193186    56.802895    42.530312    30.492281    -0.111522    -0.012100    13.826655    -64.899284    9.896730    6.726923    10.978112    -15.882991    2.452528    -1.434989    15.563270    -0.117683    -2.568356    5.557262    21.070305    3.260754    -3.553182    -0.443652    0.768386    12.492002    -9.193357    -0.716618    -8.616424    -15.193256    
41.554638    85.541969    -40.876953    -0.411024    2.899217    -65.670738    -6.558824    14.943442    0.621307    2.076949    -0.937464    10.189803    1.954825    -11.399489    10.367974    -9.428467    0.003687    0.038109    -30.326721    54.250408    -50.642525    1.778302    -0.040328    -3.839375    115.854156    3.578943    59.980484    6.269408    0.258874    4.229197    56.796219    42.381760    30.257019    -0.246934    -0.024903    13.701491    -64.769379    9.680282    6.639537    11.131908    -15.844725    2.610981    -1.453906    15.569234    -0.143523    -2.592163    5.582318    21.063429    3.344887    -3.639700    -0.443772    0.781155    12.648194    -9.101485    -0.785603    -8.628755    -15.163236    
41.546516    85.536575    -41.002632    -0.467870    2.900448    -65.798996    -6.586173    14.981212    0.574405    2.020024    -0.980589    10.262136    2.016472    -11.471266    10.447258    -9.460315    -0.016137    0.114172    -29.835039    54.194275    -51.205261    1.784733    -0.060584    -3.799361    115.849648    2.438150    58.441971    6.269292    0.224507    4.257554    56.764339    42.288059    29.970011    -0.563321    -0.073278    13.713609    -64.546989    9.452082    6.473105    11.300826    -15.808037    2.801481    -1.475226    15.603890    -0.186146    -2.624715    5.586261    21.066326    3.434651    -3.759410    -0.577624    0.761782    12.878055    -8.832559    -0.853270    -8.664063    -15.152308    
41.537399    85.530685    -41.127941    -0.534601    2.901228    -65.946938    -6.613485    15.026468    0.532971    1.972099    -1.020867    10.331852    2.060481    -11.564347    10.522774    -9.491286    0.011762    0.171539    -29.287828    54.045429    -51.824196    1.632580    -0.084895    -3.741644    115.818237    0.949327    56.513950    6.277837    0.259502    4.252144    56.635815    42.144238    29.761164    -0.701943    -0.106933    13.579176    -64.431686    9.105995    6.353700    11.482210    -15.769463    3.019967    -1.499717    15.662856    -0.243314    -2.671738    5.572525    21.081375    3.527644    -3.904359    -0.808071    0.717371    13.168293    -8.431583    -0.914858    -8.716053    -15.155359    
41.528011    85.524025    -41.250107    -0.609119    2.900879    -66.111191    -6.631694    15.083692    0.490981    1.895159    -1.069610    10.435397    2.124225    -11.677899    10.634875    -9.525397    -0.016351    0.287116    -28.715849    53.880440    -52.471653    1.689211    -0.048953    -3.749496    115.521431    -0.783488    54.323650    6.291059    0.232434    4.281475    56.469395    42.044575    29.509697    -1.045794    -0.149398    13.615803    -64.189560    8.721735    6.118807    11.671076    -15.727278    3.250845    -1.529985    15.738084    -0.301844    -2.738657    5.547776    21.109369    3.619569    -4.066728    -1.090833    0.658549    13.501793    -7.952723    -0.966585    -8.777345    -15.168400    
